<?xml version="1.0" standalone="no"?><!DOCTYPE svg PUBLIC "-//W3C//DTD SVG 1.1//EN" "http://www.w3.org/Graphics/SVG/1.1/DTD/svg11.dtd"><svg t="1568516912262" class="icon" viewBox="0 0 1024 1024" version="1.1" xmlns="http://www.w3.org/2000/svg" p-id="2364" width="62" height="62" xmlns:xlink="http://www.w3.org/1999/xlink"><defs><style type="text/css"></style></defs><path d="M512 965.4784c250.4448 0 453.4784-203.008 453.4784-453.4784 0-250.4448-203.008-453.4784-453.4784-453.4784-250.4448 0-453.4784 203.008-453.4784 453.4784 0 250.4448 203.008 453.4784 453.4784 453.4784zM512 1024C229.2224 1024 0 794.7776 0 512S229.2224 0 512 0s512 229.2224 512 512-229.2224 512-512 512z m205.9008-536.9344l-323.8656-218.1888a33.024 33.024 0 0 0-33.024-2.1248 30.336 30.336 0 0 0-17.2288 27.0592v436.4032c0 11.3408 6.6304 21.7856 17.2032 27.0336a32.9472 32.9472 0 0 0 33.024-2.1504l323.8912-218.1632c8.4992-5.7088 13.5168-15.0016 13.5168-24.9344s-5.0176-19.2-13.5168-24.9344z" fill="#EEEEEE" p-id="2365"></path></svg>