<?xml version="1.0" standalone="no"?><!DOCTYPE svg PUBLIC "-//W3C//DTD SVG 1.1//EN" "http://www.w3.org/Graphics/SVG/1.1/DTD/svg11.dtd"><svg t="1568515571329" class="icon" viewBox="0 0 1024 1024" version="1.1" xmlns="http://www.w3.org/2000/svg" p-id="16456" width="62" height="62" xmlns:xlink="http://www.w3.org/1999/xlink"><defs><style type="text/css"></style></defs><path d="M512 0C228.8 0 0 228.8 0 512s228.8 512 512 512 512-228.8 512-512S795.2 0 512 0z m0 944C273.6 944 80 750.4 80 512S273.6 80 512 80s432 193.6 432 432-193.6 432-432 432z" p-id="16457" fill="#EEEEEE"></path><path d="M444.8 670.4c0 19.2-16 33.6-33.6 33.6-19.2 0-33.6-16-33.6-33.6V353.6c0-19.2 16-33.6 33.6-33.6 19.2 0 33.6 16 33.6 33.6v316.8z m203.2 0c0 19.2-16 33.6-33.6 33.6-19.2 0-33.6-16-33.6-33.6V353.6c0-19.2 16-33.6 33.6-33.6s33.6 16 33.6 33.6v316.8z" p-id="16458" fill="#EEEEEE"></path></svg>