<?xml version="1.0" standalone="no"?><!DOCTYPE svg PUBLIC "-//W3C//DTD SVG 1.1//EN" "http://www.w3.org/Graphics/SVG/1.1/DTD/svg11.dtd"><svg t="1568773292801" class="icon" viewBox="0 0 1024 1024" version="1.1" xmlns="http://www.w3.org/2000/svg" p-id="8146" width="40" height="40" xmlns:xlink="http://www.w3.org/1999/xlink"><defs><style type="text/css"></style></defs><path d="M306.3 418.7c51.4 0 93.1 41.7 93.1 93.1 0 51.4-41.7 93.1-93.1 93.1s-93.1-41.7-93.1-93.1c0-51.4 41.7-93.1 93.1-93.1m0-55.9c-82.3 0-148.9 66.7-148.9 148.9 0 82.3 66.7 148.9 148.9 148.9 82.3 0 148.9-66.7 148.9-148.9 0-39.5-15.7-77.4-43.6-105.3-27.9-27.9-65.8-43.6-105.3-43.6z m446.8-148.9c22.6 0 43 13.6 51.6 34.5 8.6 20.9 3.9 44.9-12.1 60.9s-40 20.8-60.9 12.1c-20.9-8.6-34.5-29-34.5-51.6 0.1-30.9 25.1-55.9 55.9-55.9m0-55.9c-45.2 0-85.9 27.2-103.2 69-17.3 41.7-7.7 89.8 24.2 121.7 31.9 31.9 80 41.5 121.7 24.2s69-58 69-103.2c0-61.7-50-111.7-111.7-111.7z m0 540c30.8 0 55.9 25 55.9 55.9 0 30.8-25 55.9-55.9 55.9-30.8 0-55.9-25-55.9-55.9 0.1-30.9 25.1-55.9 55.9-55.9m0-55.9c-45.2 0-85.9 27.2-103.2 69-17.3 41.7-7.7 89.8 24.2 121.7 31.9 31.9 80 41.5 121.7 24.2s69-58 69-103.2c0-61.7-50-111.7-111.7-111.7z m0 0" p-id="8147" fill="#EEEEEE"></path><path d="M427.3 474.5c-12.8 0-23.9-8.7-27-21.1-3.1-12.4 2.6-25.3 13.8-31.4l242-130.3c8.8-5.2 19.8-5.2 28.6 0.1s14 14.9 13.5 25.2c-0.4 10.2-6.4 19.4-15.7 23.9l-242 130.3c-4 2.2-8.6 3.3-13.2 3.3z m242 260.7c-4.6 0-9.2-1.2-13.2-3.4l-242-130.3c-12.9-7.6-17.5-24.1-10.4-37.3 7.1-13.2 23.4-18.4 36.8-11.9l242 130.3c11.2 6.1 16.9 19 13.8 31.4-3.1 12.5-14.2 21.2-27 21.2z m0 0" p-id="8148" fill="#EEEEEE"></path></svg>