<?xml version="1.0" standalone="no"?><!DOCTYPE svg PUBLIC "-//W3C//DTD SVG 1.1//EN" "http://www.w3.org/Graphics/SVG/1.1/DTD/svg11.dtd"><svg t="1568800277307" class="icon" viewBox="0 0 1024 1024" version="1.1" xmlns="http://www.w3.org/2000/svg" p-id="35798" width="128" height="128" xmlns:xlink="http://www.w3.org/1999/xlink"><defs><style type="text/css"></style></defs><path d="M970.88453 687.887811l-204.208185 36.849597c-28.660798 5.118-40.943997 39.408597-22.007399 61.415996l38.896797 45.550197c-176.570987 148.933789-440.659768 126.926391-589.593557-49.132797-60.392396-71.651995-92.635793-157.122589-97.753793-244.128582h-0.5118c0-2.0472 0-4.6062-0.5118-7.1652-3.5826-25.589998-27.637198-42.991197-53.227196-38.896797-25.078198 4.0944-42.991197 27.637198-38.896797 53.227196 0 0.5118 0.5118 1.0236 0.5118 1.5354 7.165199 104.918992 46.061997 209.326185 119.249391 295.820379 182.712587 215.467784 505.146563 242.593182 721.126148 59.880596l35.314197 41.455797c18.936599 22.007398 54.250796 15.865799 63.974996-11.7714L1013.363927 737.020607c9.212399-26.613598-13.818599-54.762596-42.479397-49.132796zM53.227196 334.234037l204.208185-36.849598c28.660798-5.118 40.943997-39.408597 22.007399-61.415995L221.609384 167.899049l20.471998 24.054598c176.570987-149.445589 440.659768-127.438191 590.105358 49.132796 61.415996 72.675595 93.659393 160.193388 98.265593 248.222982h0.5118v4.0944c4.0944 25.078198 27.637198 42.991197 53.227196 38.896797 23.030998-3.5826 39.408597-23.542798 39.408597-46.061996v-1.5354c0-2.0472 0-3.5826-0.5118-5.118 0-0.5118 0-1.0236-0.5118-1.0236-6.6534-105.430792-45.550197-210.349785-119.249391-297.355778C721.126148-34.773737 398.180371-61.387335 182.200787 121.325252l-37.361397-43.502997c-18.936599-22.007398-54.250796-15.865799-63.974996 11.771399L10.747799 284.58944c-9.724199 27.125398 13.818599 54.762596 42.479397 49.644597z" p-id="35799" fill="#EEEEEE"></path></svg>