<?xml version="1.0" standalone="no"?><!DOCTYPE svg PUBLIC "-//W3C//DTD SVG 1.1//EN" "http://www.w3.org/Graphics/SVG/1.1/DTD/svg11.dtd"><svg t="1568777558858" class="icon" viewBox="0 0 1024 1024" version="1.1" xmlns="http://www.w3.org/2000/svg" p-id="23612" width="128" height="128" xmlns:xlink="http://www.w3.org/1999/xlink"><defs><style type="text/css"></style></defs><path d="M966.4 204.8L704 0v192H64c-38.4 0-64 32-64 64v192c0 32 32 64 64 64s64-32 64-64V320h576v192l262.4-204.8c25.6-25.6 25.6-76.8 0-102.4zM57.6 819.2L320 1024v-192h640c38.4 0 64-25.6 64-64V576c0-32-32-64-64-64s-64 32-64 64v128H320V512L57.6 716.8c-25.6 25.6-25.6 76.8 0 102.4z" p-id="23613" fill="#EEEEEE"></path></svg>